<?xml version="1.0" encoding="UTF-8"?>
<svg id="Layer_1" xmlns="http://www.w3.org/2000/svg" version="1.1" viewBox="0 0 359.76 359.76">
  <!-- Generator: Adobe Illustrator 30.1.0, SVG Export Plug-In . SVG Version: 2.1.1 Build 136)  -->
  <circle cx="1.73" cy="21.63" r="1.73"/>
  <circle cx="49.79" cy="21.63" r="6.73"/>
  <circle cx="97.84" cy="21.63" r="10.2"/>
  <circle cx="145.9" cy="21.63" r="13.01"/>
  <circle cx="193.96" cy="21.63" r="15.46"/>
  <circle cx="242.02" cy="21.63" r="17.67"/>
  <circle cx="290.07" cy="21.63" r="19.72"/>
  <circle cx="338.13" cy="21.63" r="21.63"/>
  <circle cx="1.73" cy="69.68" r="1.73"/>
  <circle cx="49.79" cy="69.68" r="6.13"/>
  <circle cx="97.84" cy="69.68" r="9.3"/>
  <circle cx="145.9" cy="69.68" r="11.86"/>
  <circle cx="193.96" cy="69.68" r="14.09"/>
  <circle cx="242.02" cy="69.68" r="16.11"/>
  <circle cx="290.07" cy="69.68" r="17.97"/>
  <circle cx="338.13" cy="69.68" r="19.72"/>
  <circle cx="1.73" cy="117.74" r="1.73"/>
  <circle cx="49.79" cy="117.74" r="5.5"/>
  <circle cx="97.84" cy="117.74" r="8.33"/>
  <circle cx="145.9" cy="117.74" r="10.63"/>
  <circle cx="193.96" cy="117.74" r="12.63"/>
  <circle cx="242.02" cy="117.74" r="14.44"/>
  <circle cx="290.07" cy="117.74" r="16.11"/>
  <circle cx="338.13" cy="117.74" r="17.67"/>
  <circle cx="1.73" cy="165.8" r="1.73"/>
  <circle cx="49.79" cy="165.8" r="4.81"/>
  <circle cx="97.84" cy="165.8" r="7.29"/>
  <circle cx="145.9" cy="165.8" r="9.3"/>
  <circle cx="193.96" cy="165.8" r="11.05"/>
  <circle cx="242.02" cy="165.8" r="12.63"/>
  <circle cx="290.07" cy="165.8" r="14.09"/>
  <circle cx="338.13" cy="165.8" r="15.46"/>
  <circle cx="1.73" cy="213.85" r="1.73"/>
  <circle cx="49.79" cy="213.85" r="4.05" transform="translate(-167.06 248.36) rotate(-85.93)"/>
  <circle cx="97.84" cy="213.85" r="6.13"/>
  <circle cx="145.9" cy="213.85" r="7.82"/>
  <circle cx="193.96" cy="213.85" r="9.3"/>
  <circle cx="242.02" cy="213.85" r="10.63"/>
  <circle cx="290.07" cy="213.85" r="11.86"/>
  <circle cx="338.13" cy="213.85" r="13.01"/>
  <circle cx="1.73" cy="261.91" r="1.73"/>
  <circle cx="49.79" cy="261.91" r="3.17"/>
  <circle cx="97.84" cy="261.91" r="4.81"/>
  <circle cx="145.9" cy="261.91" r="6.13"/>
  <circle cx="193.96" cy="261.91" r="7.29"/>
  <circle cx="242.02" cy="261.91" r="8.33"/>
  <circle cx="290.07" cy="261.91" r="9.3"/>
  <circle cx="338.13" cy="261.91" r="10.2"/>
  <circle cx="1.73" cy="309.97" r="1.73"/>
  <circle cx="49.79" cy="309.97" r="2.09"/>
  <circle cx="97.84" cy="309.97" r="3.17"/>
  <circle cx="145.9" cy="309.97" r="4.05"/>
  <circle cx="193.96" cy="309.97" r="4.81"/>
  <circle cx="242.02" cy="309.97" r="5.5"/>
  <circle cx="290.07" cy="309.97" r="6.13"/>
  <circle cx="338.13" cy="309.97" r="6.73"/>
  <circle cx="1.73" cy="358.03" r="1.73"/>
  <circle cx="49.79" cy="358.03" r="1.73"/>
  <circle cx="97.84" cy="358.03" r="1.73"/>
  <circle cx="145.9" cy="358.03" r="1.73"/>
  <circle cx="193.96" cy="358.03" r="1.73"/>
  <circle cx="242.02" cy="358.03" r="1.73"/>
  <circle cx="290.07" cy="358.03" r="1.73"/>
  <circle cx="338.13" cy="358.03" r="1.73"/>
</svg>
